Bad Lieutenant (2009) DVDRip XviD-MAX

Format                           : AVI
Format/Info                      : Audio Video Interleave
File size                        : 801 MiB
Duration                         : 1h 56mn
Overall bit rate                 : 958 Kbps
Writing application              : VirtualDubMod 1.5.10.2 (build 2542/release)
Writing library                  : VirtualDubMod build 2542/release
Original source form             : MAX TORRENTZ
Copyright                        : SIGISMUNT

Video
Format                           : xvid
Codec ID                         : xvid
Duration                         : 1h 56mn
Bit rate                         : 881 Kbps
Width                            : 640 pixels
Height                           : 336 pixels
Display aspect ratio             : 1.905
Frame rate                       : 25.000 fps
Resolution                       : 24 bits
Bits/(Pixel*Frame)               : 0.164
Stream size                      : 737 MiB (92%)

Audio
ID                               : 1
Format                           : MPEG Audio
Format version                   : Version 1
Format profile                   : Layer 3
Codec ID                         : 55
Codec ID/Hint                    : MP3
Duration                         : 1h 56mn
Bit rate mode                    : Constant
Bit rate                         : 128 Kbps
Channel(s)                       : 2 channels
Sampling rate                    : 48.0 KHz
Resolution                       : 16 bits
Stream size                      : 53.5 MiB (7%)
Alignment                        : Aligned on interleaves
Interleave, duration             : 24 ms (0.60 video frame)
Interleave, preload duration     : 24 ms 
http://www.imdb.com/title/tt1095217/

Screens: 
http://www.postimg.com/image/9000/8507.jpg 
http://www.postimg.com/image/9000/8508.jpg 
http://www.postimg.com/image/9000/8509.jpg 
http://www.postimg.com/image/9000/8510.jpg

ScreenCaps: 
http://www.postimg.com/image/9000/8512.jpg

Bad Lieutenant (2009) DVDRip XviD-MAX Torrent Free Download 
http://thepiratebay.org/user/extremezone/0/7